<svg t="1599209359959" class="icon" viewBox="0 0 1117 1024" version="1.1" xmlns="http://www.w3.org/2000/svg" p-id="5377" width="48" height="48"><path d="M935.563636 652.939636a41.890909 41.890909 0 1 1 83.781819 0V930.909091a88.436364 88.436364 0 0 1-88.436364 88.436364H186.181818A88.436364 88.436364 0 0 1 97.745455 930.909091v-278.341818a41.890909 41.890909 0 1 1 83.781818 0V930.909091a4.654545 4.654545 0 0 0 4.654545 4.654545h744.727273a4.654545 4.654545 0 0 0 4.654545-4.654545v-277.969455zM1000.727273 4.654545c48.872727 0 88.436364 39.563636 88.436363 88.436364v256a204.8 204.8 0 0 1-367.709091 124.136727A204.474182 204.474182 0 0 1 558.545455 553.890909a204.474182 204.474182 0 0 1-162.909091-80.663273A204.8 204.8 0 0 1 27.927273 349.090909V93.090909C27.927273 44.218182 67.490909 4.654545 116.363636 4.654545h884.363637z m-237.381818 83.781819v260.654545a121.018182 121.018182 0 0 0 242.036363 0V93.090909a4.654545 4.654545 0 0 0-4.654545-4.654545h-237.381818z m-83.781819 4.654545a4.654545 4.654545 0 0 0-4.654545-4.654545H437.527273v260.654545a121.018182 121.018182 0 0 0 242.036363 0V93.090909z m-325.818181-4.654545H116.363636a4.654545 4.654545 0 0 0-4.654545 4.654545v256a121.018182 121.018182 0 0 0 242.036364 0V88.436364z" fill="#0079FE" p-id="5378"></path></svg>