<svg t="1597994229586" class="icon" viewBox="0 0 1024 1024" version="1.1" xmlns="http://www.w3.org/2000/svg" p-id="3923" width="200" height="200"><path d="M864.761143 185.539876c-0.204677-0.204677-0.511693-0.511693-0.71637-0.71637l-3.991205-3.479512-7.777733-6.856686c-0.71637-0.71637-1.43274-1.330402-2.149111-1.739756l-23.844893-20.672397c-9.51749-8.187088-23.026184-10.23386-34.488107-5.219268-25.994004 11.359584-160.262243 64.473316-254.004397-0.511693-0.102339-0.102339-0.204677-0.102339-0.307016-0.204677-0.409354-0.307016-0.818709-0.511693-1.228063-0.71637-0.307016-0.102339-0.511693-0.307016-0.818709-0.409354-0.409354-0.204677-0.71637-0.409354-1.125725-0.511693-0.307016-0.102339-0.614032-0.307016-0.921047-0.409354-0.307016-0.102339-0.614032-0.204677-0.921047-0.307016-0.409354-0.102339-0.818709-0.307016-1.125725-0.409354-0.307016-0.102339-0.614032-0.102339-0.818709-0.204677-0.409354-0.102339-0.818709-0.204677-1.228063-0.307016-0.307016-0.102339-0.614032-0.102339-0.818709-0.102339-0.409354-0.102339-0.818709-0.102339-1.228063-0.204677-0.307016 0-0.71637 0-1.023386-0.102339-0.409354 0-0.71637 0-1.125725 0-0.409354 0-0.818709 0-1.228063 0-0.307016 0-0.614032 0-0.921047 0.102339-0.409354 0-0.921047 0.102339-1.330402 0.204677-0.307016 0-0.511693 0.102339-0.818709 0.102339-0.409354 0.102339-0.921047 0.204677-1.330402 0.307016-0.307016 0.102339-0.511693 0.102339-0.818709 0.204677-0.409354 0.102339-0.818709 0.307016-1.228063 0.409354-0.307016 0.102339-0.614032 0.204677-0.921047 0.307016-0.307016 0.102339-0.71637 0.307016-1.023386 0.409354-0.409354 0.204677-0.71637 0.307016-1.023386 0.511693-0.307016 0.102339-0.511693 0.307016-0.818709 0.409354-0.409354 0.204677-0.818709 0.511693-1.228063 0.71637-0.102339 0.102339-0.204677 0.102339-0.307016 0.204677-94.560863 65.599041-229.136118 11.461923-255.130122 0-10.745553-4.707575-23.435539-2.865481-32.236658 4.809914l-27.222067 23.537877c-0.511693 0.307016-1.023386 0.71637-1.637418 1.125725l-9.619828 8.596442-0.511693 0.409354c-0.102339 0.102339-0.102339 0.102339-0.204677 0.204677l-16.885868 15.146112c0 0 14.020388 12.280632 27.01739 35.102139 17.295223 30.292225 25.482311 64.780332 24.458925 102.543274-0.204677 6.037977-1.125725 12.38297-2.763142 18.830302-5.935639 23.128523-20.160704 83.610634-25.072956 147.060564-6.344993 82.484909 5.321607 141.431941 34.692784 175.101339 0.102339 0.102339 0.204677 0.307016 0.307016 0.409354 8.084749 10.95023 48.201479 57.821307 171.826504 100.701179 0.204677 0.102339 0.409354 0.102339 0.614032 0.204677 31.827304 14.020388 80.847492 48.099141 103.976014 67.543474 1.43274 1.228063 18.625625 19.649011 18.727963 19.751349 0.409354 0 19.341995-16.169498 24.663602-20.774735 23.230861-19.751349 71.841695-52.602039 103.157306-66.417749 0.204677-0.102339 0.409354-0.204677 0.614032-0.204677 123.625025-42.879872 163.844094-89.750949 171.826504-100.701179 0.102339-0.102339 0.204677-0.307016 0.307016-0.409354 29.371177-33.669398 41.037777-92.514092 34.692784-175.101339-4.912253-63.347591-19.137318-123.932041-25.072956-147.060564-1.637418-6.344993-2.558465-12.689986-2.763142-18.830302-1.125725-37.660604 7.163702-72.148711 24.458925-102.543274 3.888867-6.856686 7.777733-12.689986 11.257246-17.704577 0.307016-0.307016 0.614032-0.71637 0.921047-1.023386 1.125725-1.330402 2.046772-2.763142 2.865481-4.195882 6.140316-8.187088 10.540875-12.485309 10.540875-12.587647l0.511693-0.71637L864.761143 185.539876zM784.630022 339.047771c0.307016 9.415151 1.637418 19.034979 4.093544 28.654807 25.891665 101.110534 41.242455 235.481111-0.307016 281.840496-0.102339 0.102339-0.204677 0.204677-0.307016 0.307016l-1.944433 2.558465c0 0 0.102339-0.102339 0.204677-0.307016-0.307016 0.409354-32.338997 44.312612-151.563462 85.452728l-1.637418 0.614032c-7.982411 3.479512-65.906056 29.1665-103.56666 61.914851-2.763142 2.456126-6.959025 2.456126-9.824505 0-37.660604-32.748351-95.481911-58.435339-103.56666-61.914851l-0.818709-0.307016-0.818709-0.307016c-111.958425-38.68399-147.060564-79.721767-151.154108-84.941035-0.204677-0.204677-0.409354-0.511693-0.511693-0.71637-0.204677-0.409354-0.511693-0.818709-0.921047-1.228063l-0.921047-1.023386c-41.856486-46.257046-26.403358-180.832301-0.511693-282.045173 2.456126-9.619828 3.888867-19.239656 4.093544-28.654807 1.739756-61.30082-16.78353-105.306416-34.590446-133.347192l16.885868-14.634419c20.672397 8.494104 60.072756 22.514491 107.148511 28.757146 32.031981 4.298221 62.426544 4.195882 90.364981-0.204677 29.371177-4.605237 56.18389-14.122726 80.028783-28.143114 35.511493 20.979412 77.060963 31.622626 124.136718 31.622626 14.122726 0 28.757146-0.921047 43.903258-2.865481 48.303818-6.140316 89.034579-20.672397 109.604637-29.064162l15.657805 13.611033C800.79952 232.820308 782.890266 277.337597 784.630022 339.047771z" p-id="3924" fill="#8a8a8a"></path><path d="M423.988807 559.587448c-8.391765 11.973616-17.704577 24.561263-28.961823 37.762942L395.026984 467.789726c0-25.175295 0.818709-58.435339 2.046772-80.94983l-52.192684 0c-18.011593 0-13.304018-0.818709-28.654807-2.046772l0 43.391565c16.374175-1.228063 11.871277-1.43274 28.654807-1.43274l16.374175 0 0 161.490306-1.023386 28.347791 0 38.888667c0 0 33.56706-10.847891 44.005597-23.026184 18.625625-21.593444 18.011593-19.444333 32.134319-42.982211C430.026784 572.789127 429.924445 572.789127 423.988807 559.587448z" p-id="3925" fill="#8a8a8a"></path><path d="M416.927444 316.635619l-47.792125-58.640016c-8.391765 9.619828-17.397561 18.011593-27.01739 25.175295 14.429742 15.555467 25.584649 31.622626 46.052369 60.379772C395.334 334.03318 404.851489 325.027384 416.927444 316.635619z" p-id="3926" fill="#8a8a8a"></path><path d="M601.750949 615.054967 601.750949 465.640616l41.754148 0c21.593444 0 25.789326 0.921047 44.210274 2.149111l0-34.181091c-19.444333 1.228063-23.844893 1.330402-44.210274 1.330402L601.750949 434.939037 601.750949 318.273036l45.438337 0c23.947232 0 36.43254 0.818709 56.90026 1.944433l0-34.181091c-20.467719 1.228063-32.953028 1.535079-56.90026 1.535079L533.798121 287.571457c-27.631421 0-53.830102-0.307016-79.414751-1.535079l0 34.181091c25.584649-1.228063 51.78333-1.944433 79.414751-1.944433L565.932441 318.273036l0 296.781931-53.21607 0 0-94.04917c0-26.403358 0.102339-47.178093 1.330402-62.528883l-37.762942 0c1.228063 16.374175 1.637418 37.353588 1.637418 62.528883l0 94.253848c-17.397561 0-36.841895-0.614032-55.262842-1.842095l0 34.181091c18.420947-1.228063 42.777533-1.944433 71.534679-1.944433l158.317809 0c20.365381 0 43.391565 0.71637 69.9996 1.944433l0-34.181091c-26.608035 1.228063-49.634219 1.535079-69.9996 1.535079L601.750949 614.952628z" p-id="3927" fill="#8a8a8a"></path></svg>