<svg t="1597915209218" class="icon" viewBox="0 0 1024 1024" version="1.1" xmlns="http://www.w3.org/2000/svg" p-id="2168" width="200" height="200"><path d="M786.864635 954.734108c-10.818472 0-21.70762-1.174622-32.363834-3.489027-81.805484-17.774626-133.897998-98.789728-116.124368-180.595212 7.403108-34.072014 26.474795-64.780427 53.702145-86.468138 26.832159-21.374146 60.403465-33.144261 94.530229-33.144262 10.818472 0 21.706624 1.174622 32.362838 3.489027 39.628575 8.609584 73.531364 32.136873 95.46495 66.246714 21.93259 34.109841 29.269998 74.719923 20.659419 114.347503-7.403108 34.072014-26.474795 64.780427-53.70115 86.469133-26.831164 21.373151-60.403465 33.144261-94.530229 33.144262z m-0.255828-263.878929c-52.234862 0-98.211376 37.114087-109.322508 88.24998-13.111972 60.350707 25.319086 120.117089 85.668797 133.231052 7.882911 1.713157 15.927084 2.581183 23.909539 2.581183 52.234862 0 98.212371-37.115083 109.322508-88.249981 6.35192-29.235158 0.938703-59.194002-15.241224-84.358795-16.180922-25.162802-41.192416-42.520337-70.427573-48.872256a112.809544 112.809544 0 0 0-23.909539-2.581183z" p-id="2169" fill="#d81e06"></path><path d="M815.544336 693.891279c-1.400588 0-2.82208-0.148321-4.246559-0.457904-10.744809-2.334313-17.562596-12.937769-15.228283-23.681582l12.270823-56.478435c2.335309-10.744809 12.941751-17.562596 23.681583-15.228283 10.744809 2.334313 17.562596 12.937769 15.228283 23.681583l-12.270823 56.478434c-2.024731 9.32033-10.271974 15.686187-19.435024 15.686187zM743.687307 1021.013672c-1.400588 0-2.82208-0.149316-4.246559-0.457904-10.744809-2.334313-17.562596-12.937769-15.227288-23.682578l12.271818-56.477439c2.334313-10.744809 12.942746-17.564587 23.682579-15.227288 10.744809 2.334313 17.562596 12.937769 15.227287 23.682578l-12.271818 56.47744c-2.025726 9.319335-10.271974 15.685191-19.436019 15.685191zM976.40191 871.981958c-1.424479 0-2.869861-0.153298-4.318231-0.473831l-56.431648-12.479866c-10.73585-2.374131-17.51382-13.002473-15.139689-23.738323 2.374131-10.73585 13.000482-17.514815 23.738323-15.139688l56.431649 12.479865c10.73585 2.374131 17.51382 13.002473 15.139688 23.738323-2.053598 9.286485-10.28591 15.613519-19.420092 15.61352zM650.536761 799.921858c-1.424479 0-2.869861-0.153298-4.317235-0.473831l-56.432644-12.479866c-10.73585-2.374131-17.514815-13.002473-15.140684-23.738323 2.374131-10.73585 13.002473-17.51382 23.738323-15.139688l56.432644 12.479865c10.73585 2.374131 17.514815 13.002473 15.140684 23.738323-2.054594 9.287481-10.28591 15.613519-19.421088 15.61352zM900.481483 753.826886c-6.472369 0-12.819312-3.151572-16.645793-8.960975-6.047315-9.182959-3.505949-21.529436 5.67701-27.57675l48.270014-31.788469c9.183955-6.046319 21.530431-3.504954 27.57675 5.678006 6.047315 9.182959 3.505949 21.529436-5.67701 27.57675l-48.270014 31.788468a19.828224 19.828224 0 0 1-10.930957 3.28297zM621.755525 937.380555c-6.472369 0-12.819312-3.151572-16.645793-8.960976-6.047315-9.182959-3.505949-21.529436 5.67701-27.57675l48.268023-31.787473c9.183955-6.047315 21.530431-3.504954 27.57675 5.67701 6.047315 9.182959 3.505949 21.529436-5.67701 27.57675l-48.268023 31.787473a19.819265 19.819265 0 0 1-10.930957 3.283966zM892.319848 993.602165c-6.49825 0-12.867093-3.176458-16.686606-9.022693l-31.607298-48.385485c-6.01347-9.204859-3.426314-21.542376 5.77954-27.555846 9.205854-6.011479 21.543372-3.425318 27.555846 5.779541l31.607298 48.385485c6.01347 9.204859 3.426314 21.542376-5.779541 27.555846a19.817274 19.817274 0 0 1-10.869239 3.243152zM709.793477 714.203288c-6.49825 0-12.867093-3.176458-16.686607-9.022693L661.498577 656.793119c-6.01347-9.204859-3.426314-21.542376 5.77954-27.555846 9.204859-6.012474 21.542376-3.425318 27.555846 5.779541l31.608294 48.38648c6.01347 9.204859 3.426314 21.542376-5.779541 27.555846a19.818269 19.818269 0 0 1-10.869239 3.244148zM754.606318 349.269998H331.616817c-10.99566 0-19.908855-8.913194-19.908855-19.908854s8.913194-19.908855 19.908855-19.908855h422.989501c10.99566 0 19.908855 8.913194 19.908855 19.908855s-8.913194 19.908855-19.908855 19.908854zM699.432909 533.178044h-367.816092c-10.99566 0-19.908855-8.913194-19.908855-19.908855s8.913194-19.908855 19.908855-19.908854h367.816092c10.99566 0 19.908855 8.913194 19.908854 19.908854s-8.913194 19.908855-19.908854 19.908855zM589.087086 717.088081H331.616817c-10.99566 0-19.908855-8.913194-19.908855-19.908855s8.913194-19.908855 19.908855-19.908854h257.470269c10.99566 0 19.908855 8.913194 19.908854 19.908854s-8.913194 19.908855-19.908854 19.908855z" p-id="2170" fill="#d81e06"></path><path d="M540.375095 992.091083H196.447638c-16.009706 0-29.034078-13.025368-29.034078-29.036069V135.333427c0-16.009706 13.025368-29.035074 29.034078-29.035074h692.381193c16.009706 0 29.035074 13.024373 29.035073 29.035074v485.339057c0 10.994665-8.913194 19.908855-19.908854 19.908855s-19.908855-8.91419-19.908855-19.908855V146.116062H207.230274v806.158307h333.144821c10.99566 0 19.908855 8.913194 19.908855 19.908855s-8.913194 19.907859-19.908855 19.907859z" p-id="2171" fill="#d81e06"></path><path d="M183.224177 890.789853H73.399966c-16.009706 0-29.035074-13.024373-29.035074-29.035074V34.031201c0-16.009706 13.025368-29.035074 29.035074-29.035074h692.380197c16.009706 0 29.035074 13.025368 29.035073 29.035074v80.650771c0 10.99566-8.913194 19.908855-19.908854 19.908854s-19.908855-8.913194-19.908855-19.908854V44.813837H84.182602v806.158306h99.041575c10.994665 0 19.908855 8.913194 19.908855 19.908855s-8.91419 19.908855-19.908855 19.908855z" p-id="2172" fill="#d81e06"></path></svg>