<svg t="1599556157353" class="icon" viewBox="0 0 1554 1024" version="1.1" xmlns="http://www.w3.org/2000/svg" p-id="1863" width="32" height="32"><path d="M514.195342 1024a49.408 49.408 0 0 1-35.015111-14.506667L15.535787 545.991111a49.550222 49.550222 0 1 1 70.087111-70.058667l463.502222 463.502223a49.550222 49.550222 0 0 1-35.015111 84.593777zM51.830898 560.440889a49.550222 49.550222 0 0 1-35.015111-84.593778L478.184676 14.478222a49.550222 49.550222 0 0 1 69.973333 70.058667l-461.368889 461.368889a49.408 49.408 0 0 1-34.958222 14.535111z m1452.913778 0.568889h-1453.511112a49.550222 49.550222 0 1 1 0-99.100445h1453.511112a49.550222 49.550222 0 0 1 0 99.100445z" p-id="1864" fill="#8a8a8a"></path></svg>