<svg t="1599116907348" class="icon" viewBox="0 0 1216 1024" version="1.1" xmlns="http://www.w3.org/2000/svg" p-id="8097" width="32" height="32"><path d="M1160.1471 205.669024H56.486563c-30.415842 0-56.486563-24.622348-56.486563-56.486563V56.486563C0 26.070721 24.622348 0 56.486563 0h1103.660537C1190.562942 0 1216.633663 24.622348 1216.633663 56.486563v92.695898c0 31.864215-24.622348 56.486563-56.486563 56.486563zM1160.1471 615.558699H56.486563c-30.415842 0-56.486563-24.622348-56.486563-56.486563v-92.695898c0-30.415842 24.622348-56.486563 56.486563-56.486563h1103.660537c30.415842 0 56.486563 24.622348 56.486563 56.486563v92.695898c0 30.415842-24.622348 56.486563-56.486563 56.486563zM1160.1471 1024H56.486563C26.070721 1024 0 999.377652 0 967.513437v-92.695898c0-30.415842 24.622348-56.486563 56.486563-56.486563h1103.660537c30.415842 0 56.486563 24.622348 56.486563 56.486563v92.695898c0 31.864215-24.622348 56.486563-56.486563 56.486563z" fill="#ffffff" p-id="8098"></path></svg>